<svg width="18" height="22" viewBox="0 0 18 22" fill="none" xmlns="http://www.w3.org/2000/svg">
<path d="M14.6058 20.1863C13.4732 21.296 12.2365 21.1208 11.046 20.5951C9.78619 20.0578 8.63039 20.0344 7.30123 20.5951C5.63689 21.3194 4.75849 21.1091 3.76451 20.1863C-1.87576 14.3103 -1.04359 5.36197 5.3595 5.03488C6.91982 5.11665 8.00627 5.89934 8.91934 5.96943C10.2832 5.68906 11.5892 4.88302 13.0455 4.98815C14.7908 5.12834 16.1084 5.82925 16.9752 7.09089C13.3691 9.2754 14.2244 14.0766 17.53 15.4201C16.8712 17.1723 16.0159 18.9129 14.5943 20.1979L14.6058 20.1863ZM8.80376 4.96479C8.63039 2.35974 10.7224 0.210273 13.1264 0C13.4616 3.01392 10.4219 5.25684 8.80376 4.96479Z" fill="black"/>
</svg>
