<svg width="23" height="23" viewBox="0 0 23 23" fill="none" xmlns="http://www.w3.org/2000/svg">
<path opacity="0.987" fill-rule="evenodd" clip-rule="evenodd" d="M9.74908 0.0959615C10.9351 -0.0319872 11.637 -0.0319872 12.9114 0.0959615C15.1672 0.418353 17.2584 1.42518 18.8826 2.97086C17.7851 3.97255 16.702 4.98886 15.6336 6.01951C13.5876 4.34512 11.3038 3.95864 8.78223 4.86007C6.93251 5.68147 5.64447 7.01256 4.91811 8.85333C3.73113 8.00008 2.55961 7.12694 1.40409 6.23434C1.32378 6.19352 1.23206 6.17858 1.14233 6.19169C2.97787 2.77446 5.84624 0.742023 9.74744 0.0943818" fill="#F44336"/>
<path opacity="0.997" fill-rule="evenodd" clip-rule="evenodd" d="M1.13903 6.19156C1.23174 6.17787 1.31953 6.19209 1.40242 6.23421C2.55795 7.12682 3.72947 7.99995 4.91645 8.85321C4.72966 9.57044 4.61192 10.3028 4.56472 11.041C4.60507 11.755 4.72231 12.4558 4.91645 13.1434L1.22738 15.9788C-0.379128 12.7375 -0.408576 9.47505 1.13903 6.19156Z" fill="#FFC107"/>
<path opacity="0.999" fill-rule="evenodd" clip-rule="evenodd" d="M18.7078 19.4129C17.5591 18.4347 16.3566 17.5172 15.1054 16.6643C16.3596 15.8092 17.1209 14.6361 17.3892 13.145H11.2429V9.02375C14.7875 8.99532 18.3304 9.02428 21.8717 9.11063C22.5435 12.6332 21.7675 15.8092 19.5437 18.6389C19.2793 18.9103 18.9992 19.1686 18.7078 19.4129Z" fill="#448AFF"/>
<path opacity="0.993" fill-rule="evenodd" clip-rule="evenodd" d="M4.91661 13.1455C6.25809 16.3648 8.71747 17.8675 12.2948 17.6537C13.299 17.5415 14.2617 17.2027 15.1053 16.6649C16.3574 17.52 17.5582 18.4362 18.7077 19.4134C16.8863 20.9937 14.564 21.9314 12.1197 22.0735C11.5644 22.1163 11.0064 22.1163 10.451 22.0735C6.28699 21.5996 3.21249 19.5682 1.22754 15.9793L4.91661 13.1455Z" fill="#43A047"/>
</svg>
