<svg width="46" height="40" viewBox="0 0 46 40" fill="none" xmlns="http://www.w3.org/2000/svg">
<path fill-rule="evenodd" clip-rule="evenodd" d="M23.5 39.1729L26.0547 36.9556C33.0146 30.9365 38.5698 26.1274 41.9341 21.5H37C34.3408 24.6064 32.7056 24.793 29.5 22L26.5 21L23.5 23V27C27.4395 29.3242 28.4272 30.5728 23.5 32.5V38.5V39.1729ZM42.9473 20.0044C44.606 17.3564 45.5098 14.7319 45.5098 11.9351C45.5098 5.22998 40.0034 0 32.9946 0C29.4131 0 25.9619 1.43799 23.5 3.75244V8.5C28.2705 10.3574 28.7935 11.4473 23.5 13.5V19L30.5 21C32.5713 15.0762 33.9658 14.8398 37 20.5L42.9473 20.0044ZM19.4556 36.9556L22.2158 39.3521L22.5 38.5V33C18.6958 30.561 18.6128 29.2549 22.5 27V23L21.5 21.5H16.5C13.8633 25.8608 12.3291 25.4985 9.5 21.5H3.57617C6.94043 26.1274 12.4956 30.937 19.4556 36.9556ZM2.56006 20C0.90332 17.3535 0 14.7305 0 11.9351C0 5.22998 5.50684 0 12.5151 0C16.105 0 19.564 1.44482 22.0269 3.76855L22.5 8.5C16.4282 10.021 17.3604 11.3232 22.5 13.5V18L20.5 20H15C12.7539 15.1587 11.4404 14.8369 9 20H2.56006Z" fill="#002DC1"/>
</svg>
