<svg width="24" height="20" viewBox="0 0 24 20" fill="none" xmlns="http://www.w3.org/2000/svg">
<path d="M19 15C19.6 15 20.1 15.2 20.4 15.6C20.8 16 21 16.5 21 17L13 20L6 18V9H7.9L15.2 11.7C15.7 11.9 16 12.3 16 12.8C16 13.1 15.9 13.4 15.7 13.6C15.5 13.8 15.2 14 14.8 14H12L10.3 13.3L10 14.2L12 15H19ZM0 9H4V20H0V9Z" fill="#00A029"/>
<path d="M17.2514 7.425C16.655 7.425 16.083 7.22219 15.6612 6.86118C15.2395 6.50017 15.0026 6.01054 15.0026 5.5C15.0026 4.98946 15.2395 4.49983 15.6612 4.13882C16.083 3.77781 16.655 3.575 17.2514 3.575C17.8479 3.575 18.4199 3.77781 18.8416 4.13882C19.2634 4.49983 19.5003 4.98946 19.5003 5.5C19.5003 6.01054 19.2634 6.50017 18.8416 6.86118C18.4199 7.22219 17.8479 7.425 17.2514 7.425ZM22.0254 6.0335C22.0511 5.8575 22.0704 5.6815 22.0704 5.5C22.0704 5.3185 22.0511 5.137 22.0254 4.95L23.3812 4.0535C23.5033 3.971 23.5354 3.8225 23.4583 3.7015L22.1732 1.7985C22.0961 1.6775 21.9226 1.628 21.7813 1.6775L20.1814 2.2275C19.8473 2.013 19.5003 1.826 19.0955 1.6885L18.8578 0.231001C18.8447 0.16622 18.8053 0.107486 18.7465 0.0652043C18.6877 0.0229228 18.6133 -0.000175876 18.5365 1.00841e-06H15.9664C15.8057 1.00841e-06 15.6708 0.099001 15.6451 0.231001L15.4073 1.6885C15.0026 1.826 14.6556 2.013 14.3215 2.2275L12.7216 1.6775C12.5802 1.628 12.4067 1.6775 12.3296 1.7985L11.0445 3.7015C10.961 3.8225 10.9996 3.971 11.1217 4.0535L12.4774 4.95C12.4517 5.137 12.4324 5.3185 12.4324 5.5C12.4324 5.6815 12.4517 5.8575 12.4774 6.0335L11.1217 6.9465C10.9996 7.029 10.961 7.1775 11.0445 7.2985L12.3296 9.2015C12.4067 9.3225 12.5802 9.3665 12.7216 9.3225L14.3215 8.767C14.6556 8.987 15.0026 9.174 15.4073 9.3115L15.6451 10.769C15.6708 10.901 15.8057 11 15.9664 11H18.5365C18.6971 11 18.8321 10.901 18.8578 10.769L19.0955 9.3115C19.5003 9.1685 19.8473 8.987 20.1814 8.767L21.7813 9.3225C21.9226 9.3665 22.0961 9.3225 22.1732 9.2015L23.4583 7.2985C23.5354 7.1775 23.5033 7.029 23.3812 6.9465L22.0254 6.0335Z" fill="#00A029"/>
</svg>
